<?xml version="1.0" encoding="UTF-8" standalone="no"?>
<!-- Created with Inkscape (http://www.inkscape.org/) -->

<svg
   xmlns:dc="http://purl.org/dc/elements/1.1/"
   xmlns:cc="http://creativecommons.org/ns#"
   xmlns:rdf="http://www.w3.org/1999/02/22-rdf-syntax-ns#"
   xmlns:svg="http://www.w3.org/2000/svg"
   xmlns="http://www.w3.org/2000/svg"
   xmlns:sodipodi="http://sodipodi.sourceforge.net/DTD/sodipodi-0.dtd"
   xmlns:inkscape="http://www.inkscape.org/namespaces/inkscape"
   width="112.88889mm"
   height="101.6mm"
   viewBox="0 0 400.00002 359.99999"
   id="svg2"
   version="1.1"
   inkscape:version="0.91 r13725"
   sodipodi:docname="logo.svg">
  <defs
     id="defs4" />
  <sodipodi:namedview
     id="base"
     pagecolor="#ffffff"
     bordercolor="#666666"
     borderopacity="1.0"
     inkscape:pageopacity="0.0"
     inkscape:pageshadow="2"
     inkscape:zoom="0.7"
     inkscape:cx="299.31901"
     inkscape:cy="321.0579"
     inkscape:document-units="px"
     inkscape:current-layer="layer1"
     showgrid="false"
     inkscape:window-width="1594"
     inkscape:window-height="873"
     inkscape:window-x="0"
     inkscape:window-y="21"
     inkscape:window-maximized="0"
     fit-margin-top="0"
     fit-margin-left="0"
     fit-margin-right="0"
     fit-margin-bottom="0" />
  <metadata
     id="metadata7">
    <rdf:RDF>
      <cc:Work
         rdf:about="">
        <dc:format>image/svg+xml</dc:format>
        <dc:type
           rdf:resource="http://purl.org/dc/dcmitype/StillImage" />
        <dc:title></dc:title>
      </cc:Work>
    </rdf:RDF>
  </metadata>
  <g
     inkscape:label="Layer 1"
     inkscape:groupmode="layer"
     id="layer1"
     transform="translate(-28.523715,-31.48856)">
    <path
       style="fill:#1a1a1a;fill-rule:evenodd;stroke:none;stroke-width:1px;stroke-linecap:butt;stroke-linejoin:miter;stroke-opacity:1"
       d="M 220.85881,31.629719 A 200.02384,193.48104 0 0 0 35.290396,174.89124 200.02384,193.48104 0 0 0 127.00837,391.48856 L 229.55249,169.10339 219.0705,137.55063 c -3.29691,-9.62814 -7.25722,-15.89557 -11.88111,-18.80009 -4.79409,-3.14312 -13.4397,-3.86472 -25.93356,-2.16573 l -22.32827,3.03758 2.3967,-46.455331 41.27043,-5.61347 c 24.19025,-3.28952 42.29158,-0.90908 54.30481,7.14117 13.05554,8.6937 23.47285,24.42148 31.25343,47.180541 l 59.83772,175.13131 a 381.31885,368.84588 0 0 1 70.34429,-11.83922 200.02384,193.48104 0 0 0 3.37383,-10.12327 A 200.02384,193.48104 0 0 0 280.26839,38.081349 200.02384,193.48104 0 0 0 220.85881,31.629719 Z M 256.78889,250.19859 200.6466,371.7235 a 381.31885,368.84588 0 0 1 80.58867,-50.94532 l -24.44638,-70.57959 z"
       id="path3336"
       inkscape:connector-curvature="0"
       inkscape:export-xdpi="28.1"
       inkscape:export-ydpi="28.1" />
    <g
       style="font-style:normal;font-variant:normal;font-weight:normal;font-stretch:condensed;font-size:40px;line-height:125%;font-family:'PT Sans Narrow';-inkscape-font-specification:'PT Sans Narrow Condensed';letter-spacing:0px;word-spacing:0px;fill:#000000;fill-opacity:1;stroke:none;stroke-width:1px;stroke-linecap:butt;stroke-linejoin:miter;stroke-opacity:1"
       id="text4138"
       transform="translate(785.39361,49.497474)" />
  </g>
</svg>
